<?xml version="1.0" encoding="UTF-8"?>
<!DOCTYPE svg
PUBLIC "-//W3C//DTD SVG 1.1//EN"
       "http://www.w3.org/Graphics/SVG/1.1/DTD/svg11.dtd">
<svg viewBox="22 -4 1000 757" width="978px" height="761px" xmlns="http://www.w3.org/2000/svg" version="1.1">
   <line x1="898" y1="210" x2="888" y2="210" style="stroke:#0bf;stroke-width:1;"/>
   <line x1="506" y1="272" x2="496" y2="272" style="stroke:#0bf;stroke-width:1;"/>
   <line x1="888" y1="210" x2="506" y2="272" style="stroke:#0bf;stroke-width:1;"/>
   <line x1="890.5" y1="210" x2="894.03553390593" y2="213.53553390593" style="stroke:#0bf;stroke-width:2;"/>
   <line x1="890.5" y1="210" x2="894.03553390593" y2="206.46446609407" style="stroke:#0bf;stroke-width:2;"/>
   <line x1="501" y1="272" x2="504.53553390593" y2="275.53553390593" style="stroke:#0bf;stroke-width:2;"/>
   <line x1="501" y1="272" x2="504.53553390593" y2="268.46446609407" style="stroke:#0bf;stroke-width:2;"/>
   <line x1="254" y1="712" x2="264" y2="712" style="stroke:#bbb;stroke-width:1;"/>
   <line x1="384" y1="272" x2="394" y2="272" style="stroke:#bbb;stroke-width:1;"/>
   <line x1="264" y1="712" x2="384" y2="272" style="stroke:#bbb;stroke-width:1;"/>
   <line x1="261.5" y1="712" x2="257.96446609407" y2="715.53553390593" style="stroke:#bbb;stroke-width:2;"/>
   <line x1="261.5" y1="712" x2="257.96446609407" y2="708.46446609407" style="stroke:#bbb;stroke-width:2;"/>
   <line x1="389" y1="272" x2="385.46446609407" y2="275.53553390593" style="stroke:#bbb;stroke-width:2;"/>
   <line x1="389" y1="272" x2="385.46446609407" y2="268.46446609407" style="stroke:#bbb;stroke-width:2;"/>
   <line x1="621" y1="688" x2="611" y2="688" style="stroke:#bbb;stroke-width:1;"/>
   <line x1="506" y1="272" x2="496" y2="272" style="stroke:#bbb;stroke-width:1;"/>
   <line x1="611" y1="688" x2="506" y2="272" style="stroke:#bbb;stroke-width:1;"/>
   <line x1="613.5" y1="688" x2="617.03553390593" y2="691.53553390593" style="stroke:#bbb;stroke-width:2;"/>
   <line x1="613.5" y1="688" x2="617.03553390593" y2="684.46446609407" style="stroke:#bbb;stroke-width:2;"/>
   <line x1="501" y1="272" x2="504.53553390593" y2="275.53553390593" style="stroke:#bbb;stroke-width:2;"/>
   <line x1="501" y1="272" x2="504.53553390593" y2="268.46446609407" style="stroke:#bbb;stroke-width:2;"/>
   <line x1="440" y1="61" x2="450" y2="61" style="stroke:#b0b;stroke-width:1;"/>
   <line x1="506" y1="272" x2="496" y2="272" style="stroke:#b0b;stroke-width:1;"/>
   <line x1="450" y1="61" x2="506" y2="272" style="stroke:#b0b;stroke-width:1;"/>
   <line x1="447.5" y1="61" x2="443.96446609407" y2="64.535533905933" style="stroke:#b0b;stroke-width:2;"/>
   <line x1="447.5" y1="61" x2="443.96446609407" y2="57.464466094067" style="stroke:#b0b;stroke-width:2;"/>
   <line x1="501" y1="272" x2="504.53553390593" y2="275.53553390593" style="stroke:#b0b;stroke-width:2;"/>
   <line x1="501" y1="272" x2="504.53553390593" y2="268.46446609407" style="stroke:#b0b;stroke-width:2;"/>
   <line x1="150" y1="632" x2="160" y2="632" style="stroke:#b0b;stroke-width:1;"/>
   <line x1="384" y1="272" x2="394" y2="272" style="stroke:#b0b;stroke-width:1;"/>
   <line x1="160" y1="632" x2="384" y2="272" style="stroke:#b0b;stroke-width:1;"/>
   <line x1="157.5" y1="632" x2="153.96446609407" y2="635.53553390593" style="stroke:#b0b;stroke-width:2;"/>
   <line x1="157.5" y1="632" x2="153.96446609407" y2="628.46446609407" style="stroke:#b0b;stroke-width:2;"/>
   <line x1="389" y1="272" x2="385.46446609407" y2="275.53553390593" style="stroke:#b0b;stroke-width:2;"/>
   <line x1="389" y1="272" x2="385.46446609407" y2="268.46446609407" style="stroke:#b0b;stroke-width:2;"/>
   <line x1="851" y1="540" x2="841" y2="540" style="stroke:#c00;stroke-width:1;"/>
   <line x1="506" y1="272" x2="496" y2="272" style="stroke:#c00;stroke-width:1;"/>
   <line x1="841" y1="540" x2="506" y2="272" style="stroke:#c00;stroke-width:1;"/>
   <line x1="843.5" y1="540" x2="847.03553390593" y2="543.53553390593" style="stroke:#c00;stroke-width:2;"/>
   <line x1="843.5" y1="540" x2="847.03553390593" y2="536.46446609407" style="stroke:#c00;stroke-width:2;"/>
   <line x1="501" y1="272" x2="504.53553390593" y2="275.53553390593" style="stroke:#c00;stroke-width:2;"/>
   <line x1="501" y1="272" x2="504.53553390593" y2="268.46446609407" style="stroke:#c00;stroke-width:2;"/>
   <line x1="495" y1="686" x2="505" y2="686" style="stroke:#b0b;stroke-width:1;"/>
   <line x1="506" y1="272" x2="496" y2="272" style="stroke:#b0b;stroke-width:1;"/>
   <line x1="505" y1="686" x2="506" y2="272" style="stroke:#b0b;stroke-width:1;"/>
   <line x1="502.5" y1="686" x2="498.96446609407" y2="689.53553390593" style="stroke:#b0b;stroke-width:2;"/>
   <line x1="502.5" y1="686" x2="498.96446609407" y2="682.46446609407" style="stroke:#b0b;stroke-width:2;"/>
   <line x1="501" y1="272" x2="504.53553390593" y2="275.53553390593" style="stroke:#b0b;stroke-width:2;"/>
   <line x1="501" y1="272" x2="504.53553390593" y2="268.46446609407" style="stroke:#b0b;stroke-width:2;"/>
   <line x1="648" y1="46" x2="638" y2="46" style="stroke:#333;stroke-width:1;"/>
   <line x1="506" y1="272" x2="496" y2="272" style="stroke:#333;stroke-width:1;"/>
   <line x1="638" y1="46" x2="506" y2="272" style="stroke:#333;stroke-width:1;"/>
   <line x1="640.5" y1="46" x2="644.03553390593" y2="49.535533905933" style="stroke:#333;stroke-width:2;"/>
   <line x1="640.5" y1="46" x2="644.03553390593" y2="42.464466094067" style="stroke:#333;stroke-width:2;"/>
   <line x1="501" y1="272" x2="504.53553390593" y2="275.53553390593" style="stroke:#333;stroke-width:2;"/>
   <line x1="501" y1="272" x2="504.53553390593" y2="268.46446609407" style="stroke:#333;stroke-width:2;"/>
   <line x1="133" y1="64" x2="143" y2="64" style="stroke:#b0b;stroke-width:1;"/>
   <line x1="384" y1="272" x2="394" y2="272" style="stroke:#b0b;stroke-width:1;"/>
   <line x1="143" y1="64" x2="384" y2="272" style="stroke:#b0b;stroke-width:1;"/>
   <line x1="140.5" y1="64" x2="136.96446609407" y2="67.535533905933" style="stroke:#b0b;stroke-width:2;"/>
   <line x1="140.5" y1="64" x2="136.96446609407" y2="60.464466094067" style="stroke:#b0b;stroke-width:2;"/>
   <line x1="389" y1="272" x2="385.46446609407" y2="275.53553390593" style="stroke:#b0b;stroke-width:2;"/>
   <line x1="389" y1="272" x2="385.46446609407" y2="268.46446609407" style="stroke:#b0b;stroke-width:2;"/>
   <line x1="123" y1="180" x2="133" y2="180" style="stroke:#b0b;stroke-width:1;"/>
   <line x1="384" y1="272" x2="394" y2="272" style="stroke:#b0b;stroke-width:1;"/>
   <line x1="133" y1="180" x2="384" y2="272" style="stroke:#b0b;stroke-width:1;"/>
   <line x1="130.5" y1="180" x2="126.96446609407" y2="183.53553390593" style="stroke:#b0b;stroke-width:2;"/>
   <line x1="130.5" y1="180" x2="126.96446609407" y2="176.46446609407" style="stroke:#b0b;stroke-width:2;"/>
   <line x1="389" y1="272" x2="385.46446609407" y2="275.53553390593" style="stroke:#b0b;stroke-width:2;"/>
   <line x1="389" y1="272" x2="385.46446609407" y2="268.46446609407" style="stroke:#b0b;stroke-width:2;"/>
   <line x1="123" y1="200" x2="133" y2="200" style="stroke:#cb0;stroke-width:1;"/>
   <line x1="384" y1="272" x2="394" y2="272" style="stroke:#cb0;stroke-width:1;"/>
   <line x1="133" y1="200" x2="384" y2="272" style="stroke:#cb0;stroke-width:1;"/>
   <line x1="130.5" y1="200" x2="126.96446609407" y2="203.53553390593" style="stroke:#cb0;stroke-width:2;"/>
   <line x1="130.5" y1="200" x2="126.96446609407" y2="196.46446609407" style="stroke:#cb0;stroke-width:2;"/>
   <line x1="389" y1="272" x2="385.46446609407" y2="275.53553390593" style="stroke:#cb0;stroke-width:2;"/>
   <line x1="389" y1="272" x2="385.46446609407" y2="268.46446609407" style="stroke:#cb0;stroke-width:2;"/>
   <line x1="123" y1="220" x2="133" y2="220" style="stroke:#c00;stroke-width:1;"/>
   <line x1="384" y1="272" x2="394" y2="272" style="stroke:#c00;stroke-width:1;"/>
   <line x1="133" y1="220" x2="384" y2="272" style="stroke:#c00;stroke-width:1;"/>
   <line x1="130.5" y1="220" x2="126.96446609407" y2="223.53553390593" style="stroke:#c00;stroke-width:2;"/>
   <line x1="130.5" y1="220" x2="126.96446609407" y2="216.46446609407" style="stroke:#c00;stroke-width:2;"/>
   <line x1="389" y1="272" x2="385.46446609407" y2="275.53553390593" style="stroke:#c00;stroke-width:2;"/>
   <line x1="389" y1="272" x2="385.46446609407" y2="268.46446609407" style="stroke:#c00;stroke-width:2;"/>
   <line x1="634" y1="123" x2="624" y2="123" style="stroke:#cb0;stroke-width:1;"/>
   <line x1="506" y1="272" x2="496" y2="272" style="stroke:#cb0;stroke-width:1;"/>
   <line x1="624" y1="123" x2="506" y2="272" style="stroke:#cb0;stroke-width:1;"/>
   <line x1="626.5" y1="123" x2="630.03553390593" y2="126.53553390593" style="stroke:#cb0;stroke-width:2;"/>
   <line x1="626.5" y1="123" x2="630.03553390593" y2="119.46446609407" style="stroke:#cb0;stroke-width:2;"/>
   <line x1="501" y1="272" x2="504.53553390593" y2="275.53553390593" style="stroke:#cb0;stroke-width:2;"/>
   <line x1="501" y1="272" x2="504.53553390593" y2="268.46446609407" style="stroke:#cb0;stroke-width:2;"/>
   <line x1="760" y1="143" x2="770" y2="143" style="stroke:#bbb;stroke-width:1;"/>
   <line x1="888" y1="190" x2="898" y2="190" style="stroke:#bbb;stroke-width:1;"/>
   <line x1="770" y1="143" x2="888" y2="190" style="stroke:#bbb;stroke-width:1;"/>
   <line x1="767.5" y1="143" x2="763.96446609407" y2="146.53553390593" style="stroke:#bbb;stroke-width:2;"/>
   <line x1="767.5" y1="143" x2="763.96446609407" y2="139.46446609407" style="stroke:#bbb;stroke-width:2;"/>
   <line x1="893" y1="190" x2="889.46446609407" y2="193.53553390593" style="stroke:#bbb;stroke-width:2;"/>
   <line x1="893" y1="190" x2="889.46446609407" y2="186.46446609407" style="stroke:#bbb;stroke-width:2;"/>
   <line x1="188" y1="353" x2="198" y2="353" style="stroke:#c00;stroke-width:1;"/>
   <line x1="384" y1="272" x2="394" y2="272" style="stroke:#c00;stroke-width:1;"/>
   <line x1="198" y1="353" x2="384" y2="272" style="stroke:#c00;stroke-width:1;"/>
   <line x1="195.5" y1="353" x2="191.96446609407" y2="356.53553390593" style="stroke:#c00;stroke-width:2;"/>
   <line x1="195.5" y1="353" x2="191.96446609407" y2="349.46446609407" style="stroke:#c00;stroke-width:2;"/>
   <line x1="389" y1="272" x2="385.46446609407" y2="275.53553390593" style="stroke:#c00;stroke-width:2;"/>
   <line x1="389" y1="272" x2="385.46446609407" y2="268.46446609407" style="stroke:#c00;stroke-width:2;"/>
   <rect width="87" height="20" x="898" y="160" style="fill:#007;stroke:black;"/>
   <text width="87" height="20" x="903" y="174" style="fill:#fff;" font-family="Arial" font-size="16px"> address</text>
   <rect width="87" height="20" x="898" y="180" style="fill:#aea;stroke:black;"/>
   <text width="87" height="20" x="903" y="194" style="fill:black;" font-family="Arial" font-size="16px">address_id</text>
   <rect width="87" height="20" x="898" y="200" style="fill:none;stroke:black;"/>
   <text width="87" height="20" x="903" y="214" style="fill:black;" font-family="Arial" font-size="16px">main_uid</text>
   <rect width="87" height="20" x="898" y="220" style="fill:none;stroke:black;"/>
   <text width="87" height="20" x="903" y="234" style="fill:black;" font-family="Arial" font-size="16px">title</text>
   <rect width="87" height="20" x="898" y="240" style="fill:none;stroke:black;"/>
   <text width="87" height="20" x="903" y="254" style="fill:black;" font-family="Arial" font-size="16px">title_detail</text>
   <rect width="87" height="20" x="898" y="260" style="fill:none;stroke:black;"/>
   <text width="87" height="20" x="903" y="274" style="fill:black;" font-family="Arial" font-size="16px">house_no</text>
   <rect width="87" height="20" x="898" y="280" style="fill:none;stroke:black;"/>
   <text width="87" height="20" x="903" y="294" style="fill:black;" font-family="Arial" font-size="16px">street</text>
   <rect width="87" height="20" x="898" y="300" style="fill:none;stroke:black;"/>
   <text width="87" height="20" x="903" y="314" style="fill:black;" font-family="Arial" font-size="16px">landmark</text>
   <rect width="87" height="20" x="898" y="320" style="fill:none;stroke:black;"/>
   <text width="87" height="20" x="903" y="334" style="fill:black;" font-family="Arial" font-size="16px">area</text>
   <rect width="87" height="20" x="898" y="340" style="fill:none;stroke:black;"/>
   <text width="87" height="20" x="903" y="354" style="fill:black;" font-family="Arial" font-size="16px">postoffice</text>
   <rect width="87" height="20" x="898" y="360" style="fill:none;stroke:black;"/>
   <text width="87" height="20" x="903" y="374" style="fill:black;" font-family="Arial" font-size="16px">sub_district</text>
   <rect width="87" height="20" x="898" y="380" style="fill:none;stroke:black;"/>
   <text width="87" height="20" x="903" y="394" style="fill:black;" font-family="Arial" font-size="16px">district</text>
   <rect width="87" height="20" x="898" y="400" style="fill:none;stroke:black;"/>
   <text width="87" height="20" x="903" y="414" style="fill:black;" font-family="Arial" font-size="16px">state</text>
   <rect width="87" height="20" x="898" y="420" style="fill:none;stroke:black;"/>
   <text width="87" height="20" x="903" y="434" style="fill:black;" font-family="Arial" font-size="16px">pincode</text>
   <rect width="128" height="20" x="126" y="662" style="fill:#007;stroke:black;"/>
   <text width="128" height="20" x="131" y="676" style="fill:#fff;" font-family="Arial" font-size="16px"> bank_accounts</text>
   <rect width="128" height="20" x="126" y="682" style="fill:#aea;stroke:black;"/>
   <text width="128" height="20" x="131" y="696" style="fill:black;" font-family="Arial" font-size="16px">bank_account_no</text>
   <rect width="128" height="20" x="126" y="702" style="fill:none;stroke:black;"/>
   <text width="128" height="20" x="131" y="716" style="fill:black;" font-family="Arial" font-size="16px">uid</text>
   <rect width="128" height="20" x="126" y="722" style="fill:none;stroke:black;"/>
   <text width="128" height="20" x="131" y="736" style="fill:black;" font-family="Arial" font-size="16px">isverified</text>
   <rect width="104" height="20" x="621" y="658" style="fill:#007;stroke:black;"/>
   <text width="104" height="20" x="626" y="672" style="fill:#fff;" font-family="Arial" font-size="16px"> contact_email</text>
   <rect width="104" height="20" x="621" y="678" style="fill:none;stroke:black;"/>
   <text width="104" height="20" x="626" y="692" style="fill:black;" font-family="Arial" font-size="16px">uid</text>
   <rect width="104" height="20" x="621" y="698" style="fill:#aea;stroke:black;"/>
   <text width="104" height="20" x="626" y="712" style="fill:black;" font-family="Arial" font-size="16px">email</text>
   <rect width="113" height="20" x="327" y="11" style="fill:#007;stroke:black;"/>
   <text width="113" height="20" x="332" y="25" style="fill:#fff;" font-family="Arial" font-size="16px"> contact_mobile</text>
   <rect width="113" height="20" x="327" y="31" style="fill:#aea;stroke:black;"/>
   <text width="113" height="20" x="332" y="45" style="fill:black;" font-family="Arial" font-size="16px">mobile</text>
   <rect width="113" height="20" x="327" y="51" style="fill:none;stroke:black;"/>
   <text width="113" height="20" x="332" y="65" style="fill:black;" font-family="Arial" font-size="16px">uid</text>
   <rect width="105" height="20" x="45" y="542" style="fill:#007;stroke:black;"/>
   <text width="105" height="20" x="50" y="556" style="fill:#fff;" font-family="Arial" font-size="16px"> contact_other</text>
   <rect width="105" height="20" x="45" y="562" style="fill:#aea;stroke:black;"/>
   <text width="105" height="20" x="50" y="576" style="fill:black;" font-family="Arial" font-size="16px">contact_id</text>
   <rect width="105" height="20" x="45" y="582" style="fill:none;stroke:black;"/>
   <text width="105" height="20" x="50" y="596" style="fill:black;" font-family="Arial" font-size="16px">contact_type</text>
   <rect width="105" height="20" x="45" y="602" style="fill:none;stroke:black;"/>
   <text width="105" height="20" x="50" y="616" style="fill:black;" font-family="Arial" font-size="16px">contact_detail</text>
   <rect width="105" height="20" x="45" y="622" style="fill:none;stroke:black;"/>
   <text width="105" height="20" x="50" y="636" style="fill:black;" font-family="Arial" font-size="16px">uid</text>
   <rect width="108" height="20" x="851" y="490" style="fill:#007;stroke:black;"/>
   <text width="108" height="20" x="856" y="504" style="fill:#fff;" font-family="Arial" font-size="16px"> driving_licence</text>
   <rect width="108" height="20" x="851" y="510" style="fill:#aea;stroke:black;"/>
   <text width="108" height="20" x="856" y="524" style="fill:black;" font-family="Arial" font-size="16px">dl_no</text>
   <rect width="108" height="20" x="851" y="530" style="fill:none;stroke:black;"/>
   <text width="108" height="20" x="856" y="544" style="fill:black;" font-family="Arial" font-size="16px">uid</text>
   <rect width="108" height="20" x="851" y="550" style="fill:none;stroke:black;"/>
   <text width="108" height="20" x="856" y="564" style="fill:black;" font-family="Arial" font-size="16px">cdoi</text>
   <rect width="108" height="20" x="851" y="570" style="fill:none;stroke:black;"/>
   <text width="108" height="20" x="856" y="584" style="fill:black;" font-family="Arial" font-size="16px">doi</text>
   <rect width="108" height="20" x="851" y="590" style="fill:none;stroke:black;"/>
   <text width="108" height="20" x="856" y="604" style="fill:black;" font-family="Arial" font-size="16px">exp_date</text>
   <rect width="108" height="20" x="851" y="610" style="fill:none;stroke:black;"/>
   <text width="108" height="20" x="856" y="624" style="fill:black;" font-family="Arial" font-size="16px">isverified</text>
   <rect width="91" height="20" x="404" y="636" style="fill:#007;stroke:black;"/>
   <text width="91" height="20" x="409" y="650" style="fill:#fff;" font-family="Arial" font-size="16px"> eci_id</text>
   <rect width="91" height="20" x="404" y="656" style="fill:#aea;stroke:black;"/>
   <text width="91" height="20" x="409" y="670" style="fill:black;" font-family="Arial" font-size="16px">Eci_card_no</text>
   <rect width="91" height="20" x="404" y="676" style="fill:none;stroke:black;"/>
   <text width="91" height="20" x="409" y="690" style="fill:black;" font-family="Arial" font-size="16px">uid</text>
   <rect width="91" height="20" x="404" y="696" style="fill:none;stroke:black;"/>
   <text width="91" height="20" x="409" y="710" style="fill:black;" font-family="Arial" font-size="16px">isverified</text>
   <rect width="57" height="20" x="648" y="16" style="fill:#007;stroke:black;"/>
   <text width="57" height="20" x="653" y="30" style="fill:#fff;" font-family="Arial" font-size="16px"> isalive</text>
   <rect width="57" height="20" x="648" y="36" style="fill:#aea;stroke:black;"/>
   <text width="57" height="20" x="653" y="50" style="fill:black;" font-family="Arial" font-size="16px">uid</text>
   <rect width="57" height="20" x="648" y="56" style="fill:none;stroke:black;"/>
   <text width="57" height="20" x="653" y="70" style="fill:black;" font-family="Arial" font-size="16px">IsAlive</text>
   <rect width="96" height="20" x="37" y="14" style="fill:#007;stroke:black;"/>
   <text width="96" height="20" x="42" y="28" style="fill:#fff;" font-family="Arial" font-size="16px"> pan_number</text>
   <rect width="96" height="20" x="37" y="34" style="fill:#aea;stroke:black;"/>
   <text width="96" height="20" x="42" y="48" style="fill:black;" font-family="Arial" font-size="16px">pan_number</text>
   <rect width="96" height="20" x="37" y="54" style="fill:none;stroke:black;"/>
   <text width="96" height="20" x="42" y="68" style="fill:black;" font-family="Arial" font-size="16px">uid</text>
   <rect width="96" height="20" x="37" y="74" style="fill:none;stroke:black;"/>
   <text width="96" height="20" x="42" y="88" style="fill:black;" font-family="Arial" font-size="16px">isverified</text>
   <rect width="86" height="20" x="37" y="150" style="fill:#007;stroke:black;"/>
   <text width="86" height="20" x="42" y="164" style="fill:#fff;" font-family="Arial" font-size="16px"> parents</text>
   <rect width="86" height="20" x="37" y="170" style="fill:#aea;stroke:black;"/>
   <text width="86" height="20" x="42" y="184" style="fill:black;" font-family="Arial" font-size="16px">uid</text>
   <rect width="86" height="20" x="37" y="190" style="fill:none;stroke:black;"/>
   <text width="86" height="20" x="42" y="204" style="fill:black;" font-family="Arial" font-size="16px">mother_uid</text>
   <rect width="86" height="20" x="37" y="210" style="fill:none;stroke:black;"/>
   <text width="86" height="20" x="42" y="224" style="fill:black;" font-family="Arial" font-size="16px">father_uid</text>
   <rect width="102" height="20" x="394" y="242" style="fill:#007;stroke:black;"/>
   <text width="102" height="20" x="399" y="256" style="fill:#fff;" font-family="Arial" font-size="16px"> resident</text>
   <rect width="102" height="20" x="394" y="262" style="fill:#aea;stroke:black;"/>
   <text width="102" height="20" x="399" y="276" style="fill:black;" font-family="Arial" font-size="16px">uid</text>
   <rect width="102" height="20" x="394" y="282" style="fill:none;stroke:black;"/>
   <text width="102" height="20" x="399" y="296" style="fill:black;" font-family="Arial" font-size="16px">full_name</text>
   <rect width="102" height="20" x="394" y="302" style="fill:none;stroke:black;"/>
   <text width="102" height="20" x="399" y="316" style="fill:black;" font-family="Arial" font-size="16px">first_name</text>
   <rect width="102" height="20" x="394" y="322" style="fill:none;stroke:black;"/>
   <text width="102" height="20" x="399" y="336" style="fill:black;" font-family="Arial" font-size="16px">middle_name</text>
   <rect width="102" height="20" x="394" y="342" style="fill:none;stroke:black;"/>
   <text width="102" height="20" x="399" y="356" style="fill:black;" font-family="Arial" font-size="16px">last_name</text>
   <rect width="102" height="20" x="394" y="362" style="fill:none;stroke:black;"/>
   <text width="102" height="20" x="399" y="376" style="fill:black;" font-family="Arial" font-size="16px">gender</text>
   <rect width="102" height="20" x="394" y="382" style="fill:none;stroke:black;"/>
   <text width="102" height="20" x="399" y="396" style="fill:black;" font-family="Arial" font-size="16px">dob</text>
   <rect width="102" height="20" x="394" y="402" style="fill:none;stroke:black;"/>
   <text width="102" height="20" x="399" y="416" style="fill:black;" font-family="Arial" font-size="16px">photo</text>
   <rect width="102" height="20" x="394" y="422" style="fill:none;stroke:black;"/>
   <text width="102" height="20" x="399" y="436" style="fill:black;" font-family="Arial" font-size="16px">sign</text>
   <rect width="102" height="20" x="394" y="442" style="fill:none;stroke:black;"/>
   <text width="102" height="20" x="399" y="456" style="fill:black;" font-family="Arial" font-size="16px">pre_enroll</text>
   <rect width="126" height="20" x="634" y="93" style="fill:#007;stroke:black;"/>
   <text width="126" height="20" x="639" y="107" style="fill:#fff;" font-family="Arial" font-size="16px"> resident_address</text>
   <rect width="126" height="20" x="634" y="113" style="fill:#aea;stroke:black;"/>
   <text width="126" height="20" x="639" y="127" style="fill:black;" font-family="Arial" font-size="16px">uid</text>
   <rect width="126" height="20" x="634" y="133" style="fill:none;stroke:black;"/>
   <text width="126" height="20" x="639" y="147" style="fill:black;" font-family="Arial" font-size="16px">address_id</text>
   <rect width="151" height="20" x="37" y="303" style="fill:#007;stroke:black;"/>
   <text width="151" height="20" x="42" y="317" style="fill:#fff;" font-family="Arial" font-size="16px"> school</text>
   <rect width="151" height="20" x="37" y="323" style="fill:#aea;stroke:black;"/>
   <text width="151" height="20" x="42" y="337" style="fill:black;" font-family="Arial" font-size="16px">addmission_number</text>
   <rect width="151" height="20" x="37" y="343" style="fill:none;stroke:black;"/>
   <text width="151" height="20" x="42" y="357" style="fill:black;" font-family="Arial" font-size="16px">uid</text>
   <rect width="151" height="20" x="37" y="363" style="fill:none;stroke:black;"/>
   <text width="151" height="20" x="42" y="377" style="fill:black;" font-family="Arial" font-size="16px">school_id</text>
   <rect width="151" height="20" x="37" y="383" style="fill:none;stroke:black;"/>
   <text width="151" height="20" x="42" y="397" style="fill:black;" font-family="Arial" font-size="16px">joine_date</text>
   <rect width="151" height="20" x="37" y="403" style="fill:none;stroke:black;"/>
   <text width="151" height="20" x="42" y="417" style="fill:black;" font-family="Arial" font-size="16px">leave_date</text>
   <rect width="151" height="20" x="37" y="423" style="fill:none;stroke:black;"/>
   <text width="151" height="20" x="42" y="437" style="fill:black;" font-family="Arial" font-size="16px">study_detail</text>
</svg>
